<?xml version="1.0"?>
<svg xmlns="http://www.w3.org/2000/svg" xmlns:xlink="http://www.w3.org/1999/xlink" xmlns:svgjs="http://svgjs.com/svgjs" version="1.1" width="512" height="512" x="0" y="0" viewBox="0 0 512 512" style="enable-background:new 0 0 512 512" xml:space="preserve"><g><g xmlns="http://www.w3.org/2000/svg"><path d="m142.652 66.502c0 4.143 3.357 7.5 7.5 7.5s7.5-3.357 7.5-7.5c0-3.455 2.811-6.266 6.265-6.266s6.265 2.811 6.265 6.266c0 4.143 3.357 7.5 7.5 7.5s7.5-3.357 7.5-7.5c0-11.726-9.539-21.266-21.265-21.266s-21.265 9.54-21.265 21.266z" fill="#ffffff" data-original="#000000" style=""/><path d="m265.697 66.502c0 4.143 3.357 7.5 7.5 7.5s7.5-3.357 7.5-7.5c0-3.455 2.811-6.266 6.265-6.266s6.265 2.811 6.265 6.266c0 4.143 3.357 7.5 7.5 7.5s7.5-3.357 7.5-7.5c0-11.726-9.539-21.266-21.265-21.266s-21.265 9.54-21.265 21.266z" fill="#ffffff" data-original="#000000" style=""/><path d="m246.85 78.317c0 3.835-3.12 6.955-6.956 6.955-3.835 0-6.955-3.12-6.955-6.955 0-4.143-3.357-7.5-7.5-7.5s-7.5 3.357-7.5 7.5c0 3.835-3.12 6.955-6.956 6.955-3.835 0-6.955-3.12-6.955-6.955 0-4.143-3.357-7.5-7.5-7.5s-7.5 3.357-7.5 7.5c0 18.831 22.276 28.898 36.411 16.504 14.123 12.384 36.412 2.338 36.412-16.504 0-4.143-3.357-7.5-7.5-7.5s-7.501 3.358-7.501 7.5z" fill="#ffffff" data-original="#000000" style=""/><path d="m425.613 108.596c12.198-13.659 17.477-32.294 13.899-50.644-1.596-8.195-7.922-14.522-16.118-16.12-13.349-2.602-26.985-.518-38.779 5.684-1.341-4.006-3.034-7.889-5.093-11.61-2.006-3.623-6.569-4.935-10.194-2.931-3.624 2.006-4.936 6.569-2.931 10.194 6.701 12.107 8.558 26.329 5.213 39.708l-20.401 81.605c-4.997 19.993-28.457 35.07-54.569 35.07-32.591 0-61.346-21.83-53.983-51.271l3.678-14.713c1.182-4.733-2.405-9.318-7.276-9.318h-106.8c-30.118 0-54.621-24.503-54.621-54.62 0-30.118 24.503-54.621 54.621-54.621h186.361c10.993 0 21.399 3.343 30.021 9.017 3.464 2.274 8.111 1.314 10.388-2.147 2.274-3.462 1.313-8.112-2.147-10.388-11.416-7.496-24.705-11.491-38.263-11.491h-186.361c-38.39 0-69.621 31.241-69.621 69.631 0 38.389 31.231 69.62 69.621 69.62h60.091c-9.573 33.379-1.78 57.23 14.919 88.73l-38.109 152.43c-1.004 4.019 1.438 8.091 5.457 9.096 4.036 1.006 8.094-1.452 9.096-5.457l34.299-137.19c14.644 24.168 32.083 47.862 45.229 64.777 11.865 15.27 31.411 19.705 47.712 13.875l-32.522 130.089c-6.269 25.073-28.738 41.39-52.945 41.39-35.536 0-61.681-33.299-53.037-67.883l3.988-15.954c1.004-4.019-1.439-8.091-5.457-9.096-4.021-.999-8.09 1.439-9.096 5.457l-3.988 15.955c-11.011 44.068 22.308 86.53 67.59 86.53 30.872 0 59.501-20.779 67.498-52.761l36.832-147.328c.073-.093.153-.18.226-.274 14.345-18.458 59.775-79.354 72.021-124.842 9.494 2.563 19.293 2.916 28.997 1.026 8.7-1.696 15.419-8.415 17.115-17.117 4.491-23.047-3.877-46.946-22.561-62.108zm-39.45-22.081c1.93-7.72 2.508-15.558 1.735-23.549 9.566-6.289 21.236-8.629 32.627-6.411 2.168.423 3.842 2.097 4.265 4.266 2.833 14.532-1.796 29.293-12.125 39.615-8.84-4.189-18.565-6.316-28.443-6.159zm3.052 89.168c-6.088 33.908-40.678 87.708-71.019 126.75-.298.383-.607.755-.922 1.119-.032.038-.063.076-.095.115-5.188 5.94-12.589 9.315-20.545 9.315-.001 0-.002 0-.003 0-8.484-.001-16.338-3.846-21.547-10.549-15.751-20.269-37.775-50.426-53.245-78.996-12.408-22.914-18.699-41.115-18.699-54.096 0-10.326 1.663-20.423 4.926-30.09h21.386l-1.349 5.394c-9.777 39.135 25.661 69.909 68.536 69.909 33.327 0 62.397-19.528 69.122-46.433l11.942-47.768c11.282 19.173 14.168 40.536 11.512 55.33zm44.235-7.848c-.521 2.677-2.588 4.743-5.263 5.265-7.827 1.523-15.802 1.138-23.359-1.096 1.939-20.666-4.117-43.651-16.307-62.666 11.746.725 22.783 5.663 31.456 14.336 11.743 11.744 16.655 27.84 13.473 44.161z" fill="#ffffff" data-original="#000000" style=""/></g></g></svg>
