<?xml version="1.0"?>
<svg xmlns="http://www.w3.org/2000/svg" xmlns:xlink="http://www.w3.org/1999/xlink" xmlns:svgjs="http://svgjs.com/svgjs" version="1.1" width="512" height="512" x="0" y="0" viewBox="0 0 512.002 512.002" style="enable-background:new 0 0 512 512" xml:space="preserve" class=""><g><g xmlns="http://www.w3.org/2000/svg"><g><path d="m447.412 346.21h-193.406c-4.143 0-7.5 3.358-7.5 7.5s3.357 7.5 7.5 7.5h193.406c4.143 0 7.5-3.358 7.5-7.5s-3.358-7.5-7.5-7.5z" fill="#ffffff" data-original="#000000" style="" class=""/><path d="m254.006 384.11c-4.143 0-7.5 3.358-7.5 7.5s3.357 7.5 7.5 7.5h75.146c4.143 0 7.5-3.358 7.5-7.5s-3.357-7.5-7.5-7.5z" fill="#ffffff" data-original="#000000" style="" class=""/><path d="m447.412 384.11h-75.117c-4.143 0-7.5 3.358-7.5 7.5s3.357 7.5 7.5 7.5h75.117c4.143 0 7.5-3.358 7.5-7.5s-3.358-7.5-7.5-7.5z" fill="#ffffff" data-original="#000000" style="" class=""/><path d="m417.678 98.442c-1.644-4.497-4.931-8.079-9.245-10.083l-7.608-3.548c-4.326-2.011-9.184-2.211-13.678-.568-4.496 1.643-8.079 4.931-10.087 9.253l-4.298 9.241c-31.59-10.392-49.416-4.529-56.424 5.692-20.48 7.684-36.959 24.7-49.007 50.637-9.715 20.915-12.276 52.357-6.685 82.056 6.213 33.001 21.193 57.371 41.103 66.861 6.278 2.99 13.553 4.482 21.632 4.482 9.486 0 20.081-2.057 31.472-6.162 35.176-12.675 70.85-41.938 82.979-68.066 12.05-25.937 14.413-49.499 7.057-70.094 3.307-11.966-3.708-29.375-32.052-46.795l4.274-9.228c2.007-4.326 2.209-9.183.567-13.678zm6.547 133.477c-10.279 22.144-43.682 49.182-74.459 60.271-16.995 6.124-31.757 6.922-41.566 2.25-15.536-7.406-27.496-27.852-32.813-56.095-4.966-26.376-2.789-55.015 5.547-72.961 8.684-18.695 19.745-31.864 32.966-39.31.913 2.864 2.427 5.633 4.518 8.131 7.538 9.006 20.167 12.818 34.507 10.633 8.846 12.841 25.006 20.36 40.559 18.842 7.535 12.313 18.538 19.495 30.24 19.495h.11c3.267-.012 6.366-.643 9.149-1.794 2.85 14.898-.072 31.841-8.758 50.538zm5.897-66.932c-.943 1.985-3.316 3.177-6.347 3.189-.016 0-.029 0-.045 0-5.666 0-13.747-4.215-19.487-16.054-1.276-2.632-3.928-4.229-6.747-4.229-.61 0-1.229.075-1.843.23-12.057 3.051-26.812-3.802-32.23-14.968-1.554-3.203-5.147-4.873-8.594-3.995-12.814 3.255-21.269-.232-24.909-4.582-1.941-2.32-2.558-4.902-1.647-6.91 2.467-5.443 16.69-9.554 45.767 1.426 3.673 1.387 7.794-.294 9.45-3.854l7.173-15.424c.434-.933 1.209-1.332 1.633-1.487.425-.155 1.276-.351 2.199.079l7.608 3.549c1.422.66 2.063 2.42 1.403 3.843-.002.002-.003.004-.004.007l-7.144 15.421c-1.65 3.563-.272 7.797 3.159 9.706 27.164 15.115 33.189 28.639 30.605 34.053z" fill="#ffffff" data-original="#000000" style="" class=""/><path d="m318.635 181.858c4.143 0 7.5-3.358 7.5-7.5v-.397c0-4.142-3.357-7.5-7.5-7.5s-7.5 3.358-7.5 7.5v.397c0 4.142 3.357 7.5 7.5 7.5z" fill="#ffffff" data-original="#000000" style="" class=""/><path d="m308.232 206.373c-4.143 0-7.5 3.358-7.5 7.5v.397c0 4.142 3.357 7.5 7.5 7.5s7.5-3.358 7.5-7.5v-.397c0-4.142-3.357-7.5-7.5-7.5z" fill="#ffffff" data-original="#000000" style="" class=""/><path d="m325.268 244.784c-4.143 0-7.5 3.358-7.5 7.5v.396c0 4.142 3.357 7.5 7.5 7.5s7.5-3.358 7.5-7.5v-.396c0-4.142-3.357-7.5-7.5-7.5z" fill="#ffffff" data-original="#000000" style="" class=""/><path d="m351.772 189.762c-4.143 0-7.5 3.358-7.5 7.5v.397c0 4.142 3.357 7.5 7.5 7.5s7.5-3.358 7.5-7.5v-.397c0-4.142-3.357-7.5-7.5-7.5z" fill="#ffffff" data-original="#000000" style="" class=""/><path d="m392.785 201.262c-4.156-.299-7.721 2.815-8.016 6.947l-.028.397c-.294 4.132 2.816 7.72 6.947 8.015.183.013.362.02.542.02 3.899 0 7.191-3.017 7.474-6.967l.028-.397c.294-4.133-2.816-7.72-6.947-8.015z" fill="#ffffff" data-original="#000000" style="" class=""/><path d="m368.411 232.425c-4.143 0-7.5 3.358-7.5 7.5v.397c0 4.142 3.357 7.5 7.5 7.5s7.5-3.358 7.5-7.5v-.397c0-4.142-3.358-7.5-7.5-7.5z" fill="#ffffff" data-original="#000000" style="" class=""/><path d="m164.626 235.226c1.067.527 2.199.776 3.314.776 2.765 0 5.424-1.535 6.73-4.181l1.134-2.296c1.834-3.714.31-8.211-3.404-10.045-3.713-1.833-8.21-.309-10.045 3.405l-1.134 2.296c-1.834 3.713-.309 8.211 3.405 10.045z" fill="#ffffff" data-original="#000000" style="" class=""/><path d="m142.005 212.236c1.068.527 2.2.777 3.315.777 2.765 0 5.424-1.534 6.73-4.181l1.134-2.296c1.834-3.714.311-8.211-3.403-10.045-3.716-1.834-8.211-.311-10.046 3.404l-1.134 2.296c-1.834 3.713-.31 8.211 3.404 10.045z" fill="#ffffff" data-original="#000000" style="" class=""/><path d="m504.502 215.279c4.143 0 7.5-3.358 7.5-7.5v-178.02c0-12.436-10.116-22.552-22.552-22.552h-277.454c-12.436 0-22.552 10.117-22.552 22.552v4.123l-72.182 11.891c-4.088.673-6.854 4.533-6.182 8.62.605 3.674 3.785 6.282 7.392 6.282.404 0 .815-.033 1.228-.101l69.744-11.49v128.361l-71.192-34.657c-.308-.199-.628-.386-.972-.542-.243-.111-.488-.206-.735-.289l-26.84-13.066c-1.79-.87-3.85-.995-5.73-.346s-3.426 2.019-4.296 3.807c-15.021 30.857-16.967 65.787-5.481 98.355 11.474 32.535 34.984 58.82 66.206 74.017 15.558 7.562 32.023 11.927 49.041 13.016v59.737l-74.024 12.203c-4.087.673-6.854 4.533-6.181 8.62.605 3.674 3.786 6.281 7.392 6.281.405 0 .815-.033 1.229-.101l71.585-11.801v23.208l-67.846 11.182c-4.087.674-6.854 4.533-6.181 8.62.605 3.674 3.785 6.281 7.392 6.281.405 0 .815-.033 1.229-.101l65.406-10.78v2.048c0 12.436 10.116 22.553 22.552 22.553h83.874l-206.359 33.999c-2.024.333-4.077-.149-5.768-1.361-1.688-1.209-2.8-2.989-3.133-5.016l-65.508-397.65c-.692-4.217 2.167-8.21 6.375-8.902l64.232-10.574c4.088-.673 6.855-4.532 6.183-8.619s-4.522-6.858-8.619-6.182l-64.23 10.575c-12.368 2.033-20.776 13.757-18.741 26.138l65.509 397.65c.982 5.981 4.249 11.228 9.197 14.773 3.916 2.806 8.505 4.273 13.216 4.273 1.236 0 2.481-.101 3.724-.305l273.426-45.048c3.361-.565 6.495-1.848 9.214-3.751h114.86c12.436 0 22.552-10.117 22.552-22.553v-190.746c0-4.142-3.357-7.5-7.5-7.5s-7.5 3.358-7.5 7.5v190.748c0 4.165-3.388 7.553-7.552 7.553h-277.454c-4.164 0-7.552-3.388-7.552-7.553v-403.38c0-4.165 3.388-7.552 7.552-7.552h277.454c4.164 0 7.552 3.388 7.552 7.552v178.02c0 4.142 3.357 7.5 7.5 7.5zm-315.058 55.097c-9.656-1.081-19.015-3.803-27.911-8.14-38.526-18.742-56.886-63.604-43.404-102.824l71.315 34.716zm-42.48 20.86c-27.648-13.458-48.467-36.725-58.62-65.517-9.299-26.367-8.632-54.475 1.76-79.95l14.438 7.028c-7.963 21.663-7.973 45.31.106 67.355 8.939 24.398 26.812 44.134 50.317 55.569 10.96 5.343 22.529 8.601 34.479 9.734v17.251c-14.729-1.066-28.988-4.913-42.48-11.47z" fill="#ffffff" data-original="#000000" style="" class=""/></g></g></g></svg>
